<svg xmlns="http://www.w3.org/2000/svg" xmlns:xlink="http://www.w3.org/1999/xlink" version="1.1" id="Calque_1" x="0px" y="0px" width="64px" height="64px" viewBox="0 0 64 64" enable-background="new 0 0 64 64" xml:space="preserve">
<g>
	<path fill="#ffffff" d="M50.524,6.086H18.656c-2.219,0-4.15,0.763-5.583,2.202c-1.372,1.38-2.167,3.331-2.221,5.384   c-0.008,0.081-0.024,0.159-0.024,0.244v35.728c0,0.073,0.016,0.145,0.022,0.217c-0.001,0.064-0.008,0.128-0.008,0.192   c0,3.812,2.739,7.861,7.814,7.861h31.868c1.462,0,2.647-1.186,2.647-2.646V8.732C53.172,7.271,51.986,6.086,50.524,6.086z    M47.878,52.621H18.656c-2.4,0-2.521-2.139-2.521-2.568c0-0.588,0.182-2.504,2.521-2.504h29.222V52.621z M47.878,42.256H18.656   c-0.926,0-1.77,0.132-2.535,0.364V14.044c0.002-0.048,0.014-0.094,0.014-0.143c-0.004-0.749,0.248-1.434,0.691-1.88   c0.424-0.427,1.04-0.643,1.831-0.643h29.221V42.256z"/>
	<path fill="#ffffff" d="M22.957,21.524H40.49c1.461,0,2.646-1.185,2.646-2.646s-1.186-2.646-2.646-2.646H22.957   c-1.461,0-2.646,1.185-2.646,2.646S21.496,21.524,22.957,21.524z"/>
	<path fill="#ffffff" d="M22.957,30.787H40.49c1.461,0,2.646-1.185,2.646-2.646s-1.186-2.646-2.646-2.646H22.957   c-1.461,0-2.646,1.185-2.646,2.646S21.496,30.787,22.957,30.787z"/>
</g>
</svg>