<?xml version="1.0" encoding="UTF-8" standalone="no"?>
<svg width="24px" height="48px" viewBox="0 0 24 48" version="1.1" xmlns="http://www.w3.org/2000/svg" xmlns:xlink="http://www.w3.org/1999/xlink" xmlns:sketch="http://www.bohemiancoding.com/sketch/ns">
    <g id="Page 1" stroke="none" stroke-width="1" fill="none" fill-rule="evenodd">
        <g id="Book On" transform="translate(6.000000, 29.000000)" fill="#78B2F2">
            <path d="M2.21845402,0 C1.58958975,0 1.04234465,0.206104808 0.636232662,0.594813614 C0.247408068,0.967585089 0.0221051882,1.49459751 0.00680159638,2.04916261 C0.00453439759,2.07104268 0,2.09211237 0,2.11507293 L0,11.7660724 C0,11.7857915 0.00453439759,11.8052404 0.00623479669,11.8246894 C0.00595139684,11.8419773 0.00396759789,11.8592653 0.00396759789,11.8765532 C0.00396759789,12.9062669 0.780199785,14 2.21845402,14 L11.2498404,14 C11.664171,14 11.9999998,13.6796326 11.9999998,13.2852512 L11.9999998,0.714748784 C12.0002832,0.320097245 11.664171,0 11.2498404,0 L2.21845402,0 Z M11,12 L2.71477176,12 C2.03430678,12 2,11.5782729 2,11.4936909 C2,11.3777603 2.05160193,11 2.71477176,11 L11,11 L11,12 L11,12 Z M11,8.90679214 L2.71842428,8.90679214 C2.45599395,8.90679214 2.21680259,8.94059279 2,9 L2,1.68267076 C2.0005668,1.67037962 2.00396763,1.6586006 2.00396763,1.64605339 C2.00283402,1.45426029 2.07425135,1.27885539 2.19979847,1.16465015 C2.31996095,1.05531016 2.49453664,1 2.71870769,1 L11,1 L11,8.90679214 L11,8.90679214 Z M11,8.90679214" id="Shape"></path>
            <path d="M8.30444688,4 C8.68849945,4 9,3.7760771 9,3.5 C9,3.2239229 8.68823658,3 8.30444688,3 L3.69555312,3 C3.31150055,3 3,3.2239229 3,3.5 C3,3.7760771 3.31150055,4 3.69555312,4 L8.30444688,4 Z M8.30444688,4" id="Shape"></path>
            <path d="M3.69555312,6 L8.30444688,6 C8.68849945,6 9,5.7760771 9,5.5 C9,5.2239229 8.68823658,5 8.30444688,5 L3.69555312,5 C3.31150055,5 3,5.2239229 3,5.5 C3,5.7760771 3.31150055,6 3.69555312,6 L3.69555312,6 Z M3.69555312,6" id="Shape"></path>
        </g>
        <g id="Book Off" transform="translate(6.000000, 5.000000)" fill="#BBBBBB">
            <path d="M2.21845402,0 C1.58958975,0 1.04234465,0.206104808 0.636232662,0.594813614 C0.247408068,0.967585089 0.0221051882,1.49459751 0.00680159638,2.04916261 C0.00453439759,2.07104268 0,2.09211237 0,2.11507293 L0,11.7660724 C0,11.7857915 0.00453439759,11.8052404 0.00623479669,11.8246894 C0.00595139684,11.8419773 0.00396759789,11.8592653 0.00396759789,11.8765532 C0.00396759789,12.9062669 0.780199785,14 2.21845402,14 L11.2498404,14 C11.664171,14 11.9999998,13.6796326 11.9999998,13.2852512 L11.9999998,0.714748784 C12.0002832,0.320097245 11.664171,0 11.2498404,0 L2.21845402,0 Z M11,12 L2.71477176,12 C2.03430678,12 2,11.5782729 2,11.4936909 C2,11.3777603 2.05160193,11 2.71477176,11 L11,11 L11,12 L11,12 Z M11,8.90679214 L2.71842428,8.90679214 C2.45599395,8.90679214 2.21680259,8.94059279 2,9 L2,1.68267076 C2.0005668,1.67037962 2.00396763,1.6586006 2.00396763,1.64605339 C2.00283402,1.45426029 2.07425135,1.27885539 2.19979847,1.16465015 C2.31996095,1.05531016 2.49453664,1 2.71870769,1 L11,1 L11,8.90679214 L11,8.90679214 Z M11,8.90679214" id="Shape"></path>
            <path d="M3.69555312,4 L8.30444688,4 C8.68849945,4 9,3.7760771 9,3.5 C9,3.2239229 8.68823658,3 8.30444688,3 L3.69555312,3 C3.31150055,3 3,3.2239229 3,3.5 C3,3.7760771 3.31150055,4 3.69555312,4 L3.69555312,4 Z M3.69555312,4" id="Shape"></path>
            <path d="M3.69555312,6 L8.30444688,6 C8.68849945,6 9,5.7760771 9,5.5 C9,5.2239229 8.68823658,5 8.30444688,5 L3.69555312,5 C3.31150055,5 3,5.2239229 3,5.5 C3,5.7760771 3.31150055,6 3.69555312,6 L3.69555312,6 Z M3.69555312,6" id="Shape"></path>
        </g>
    </g>
</svg>