<?xml version="1.0" encoding="UTF-8" standalone="no"?>
<svg width="24px" height="48px" viewBox="0 0 24 48" version="1.1" xmlns="http://www.w3.org/2000/svg" xmlns:xlink="http://www.w3.org/1999/xlink" xmlns:sketch="http://www.bohemiancoding.com/sketch/ns">
    <title>Book</title>
    <description>Created with Sketch (http://www.bohemiancoding.com/sketch)</description>
    <defs></defs>
    <g id="Page 1" stroke="none" stroke-width="1" fill="none" fill-rule="evenodd">
        <g id="Book Off" transform="translate(5.000000, 4.000000)" fill="#BBBBBB">
            <path d="M2.58819636,0 C1.85452138,0 1.21606875,0.235548352 0.742271439,0.679786988 C0.288642747,1.10581153 0.0257893863,1.70811145 0.00793519578,2.34190013 C0.00529013052,2.36690592 0,2.39098557 0,2.41722621 L0,13.4469399 C0,13.469476 0.00529013052,13.4917033 0.00727392947,13.5139307 C0.00694329631,13.5336884 0.00462886421,13.553446 0.00462886421,13.5732037 C0.00462886421,14.7500193 0.910233083,16 2.58819636,16 L13.1248138,16 C13.6081995,16 13.9999998,15.6338659 13.9999998,15.1831442 L13.9999998,0.816855754 C14.0003304,0.365825423 13.6081995,0 13.1248138,0 L2.58819636,0 Z M13,14 L2.87360993,14 C2.0419305,14 2,13.5782729 2,13.4936909 C2,13.3777603 2.06306902,13 2.87360993,13 L13,13 L13,14 L13,14 Z M13,9.89514116 L2.87807413,9.89514116 C2.55732594,9.89514116 2.26498095,9.93316689 2,10 L2,1.76800461 C2.00069276,1.75417707 2.00484932,1.74092568 2.00484932,1.72681006 C2.0034638,1.51104283 2.09075165,1.31371231 2.24419813,1.18523142 C2.39106339,1.06222393 2.60443367,1 2.87842051,1 L13,1 L13,9.89514116 L13,9.89514116 Z M13,9.89514116" id="Shape"></path>
            <path d="M4.81147864,4 L10.1885214,4 C10.6365827,4 11,3.7760771 11,3.5 C11,3.2239229 10.636276,3 10.1885214,3 L4.81147864,3 C4.36341731,3 4,3.2239229 4,3.5 C4,3.7760771 4.36341731,4 4.81147864,4 L4.81147864,4 Z M4.81147864,4" id="Shape"></path>
            <path d="M4.81147864,7 L10.1885214,7 C10.6365827,7 11,6.7760771 11,6.5 C11,6.2239229 10.636276,6 10.1885214,6 L4.81147864,6 C4.36341731,6 4,6.2239229 4,6.5 C4,6.7760771 4.36341731,7 4.81147864,7 L4.81147864,7 Z M4.81147864,7" id="Shape"></path>
        </g>
        <g id="Book Off copy" transform="translate(5.000000, 28.000000)" fill="#78B2F2">
            <path d="M2.58819636,0 C1.85452138,0 1.21606875,0.235548352 0.742271439,0.679786988 C0.288642747,1.10581153 0.0257893863,1.70811145 0.00793519578,2.34190013 C0.00529013052,2.36690592 0,2.39098557 0,2.41722621 L0,13.4469399 C0,13.469476 0.00529013052,13.4917033 0.00727392947,13.5139307 C0.00694329631,13.5336884 0.00462886421,13.553446 0.00462886421,13.5732037 C0.00462886421,14.7500193 0.910233083,16 2.58819636,16 L13.1248138,16 C13.6081995,16 13.9999998,15.6338659 13.9999998,15.1831442 L13.9999998,0.816855754 C14.0003304,0.365825423 13.6081995,0 13.1248138,0 L2.58819636,0 Z M13,14 L2.87360993,14 C2.0419305,14 2,13.5782729 2,13.4936909 C2,13.3777603 2.06306902,13 2.87360993,13 L13,13 L13,14 L13,14 Z M13,9.89514116 L2.87807413,9.89514116 C2.55732594,9.89514116 2.26498095,9.93316689 2,10 L2,1.76800461 C2.00069276,1.75417707 2.00484932,1.74092568 2.00484932,1.72681006 C2.0034638,1.51104283 2.09075165,1.31371231 2.24419813,1.18523142 C2.39106339,1.06222393 2.60443367,1 2.87842051,1 L13,1 L13,9.89514116 L13,9.89514116 Z M13,9.89514116" id="Shape"></path>
            <path d="M4.81147864,4 L10.1885214,4 C10.6365827,4 11,3.7760771 11,3.5 C11,3.2239229 10.636276,3 10.1885214,3 L4.81147864,3 C4.36341731,3 4,3.2239229 4,3.5 C4,3.7760771 4.36341731,4 4.81147864,4 L4.81147864,4 Z M4.81147864,4" id="Shape"></path>
            <path d="M4.81147864,7 L10.1885214,7 C10.6365827,7 11,6.7760771 11,6.5 C11,6.2239229 10.636276,6 10.1885214,6 L4.81147864,6 C4.36341731,6 4,6.2239229 4,6.5 C4,6.7760771 4.36341731,7 4.81147864,7 L4.81147864,7 Z M4.81147864,7" id="Shape"></path>
        </g>
    </g>
</svg>