<?xml version="1.0" encoding="UTF-8" standalone="no"?>
<svg width="24px" height="48px" viewBox="0 0 24 48" version="1.1" xmlns="http://www.w3.org/2000/svg" xmlns:xlink="http://www.w3.org/1999/xlink" xmlns:sketch="http://www.bohemiancoding.com/sketch/ns">
    <title>DevDocs</title>
    <description>Created with Sketch (http://www.bohemiancoding.com/sketch)</description>
    <defs></defs>
    <g id="Page 1" stroke="none" stroke-width="1" fill="none" fill-rule="evenodd">
        <path d="M8.44444444,14.3222222 L9.64756944,14.3222222 L9.28819444,17.6222222 L10.3819444,17.6222222 L10.7413194,14.3222222 L12.5850694,14.3222222 L12.2100694,17.6222222 L13.3038194,17.6222222 L13.6788194,14.3222222 L15.1319444,14.3222222 L15.1319444,13.0360684 L13.8194444,13.0360684 L14.0694444,10.8529915 L15.4444444,10.8529915 L15.4444444,9.56683761 L14.2100694,9.56683761 L14.5381944,6.62222222 L13.4600694,6.62222222 L13.1163194,9.56683761 L11.2725694,9.56683761 L11.6006944,6.62222222 L10.5381944,6.62222222 L10.1788194,9.56683761 L8.75694444,9.56683761 L8.75694444,10.8529915 L10.0381944,10.8529915 L9.78819444,13.0360684 L8.44444444,13.0360684 Z M7.00947762,4 L16.9905224,4 C18.6633689,4 20,5.34738902 20,7.00947762 L20,16.9905224 C20,18.6633689 18.652611,20 16.9905224,20 L7.00947762,20 C5.33663106,20 4,18.652611 4,16.9905224 L4,7.00947762 C4,5.33663106 5.34738902,4 7.00947762,4 Z M10.9206349,12.8417094 L11.1746032,10.7247863 L13.047619,10.7247863 L12.7936508,12.8417094 Z M10.9206349,12.8417094" id="DevDocs" fill="#BBBBBB"></path>
        <path d="M8.44444444,38.3222222 L9.64756944,38.3222222 L9.28819444,41.6222222 L10.3819444,41.6222222 L10.7413194,38.3222222 L12.5850694,38.3222222 L12.2100694,41.6222222 L13.3038194,41.6222222 L13.6788194,38.3222222 L15.1319444,38.3222222 L15.1319444,37.0360684 L13.8194444,37.0360684 L14.0694444,34.8529915 L15.4444444,34.8529915 L15.4444444,33.5668376 L14.2100694,33.5668376 L14.5381944,30.6222222 L13.4600694,30.6222222 L13.1163194,33.5668376 L11.2725694,33.5668376 L11.6006944,30.6222222 L10.5381944,30.6222222 L10.1788194,33.5668376 L8.75694444,33.5668376 L8.75694444,34.8529915 L10.0381944,34.8529915 L9.78819444,37.0360684 L8.44444444,37.0360684 Z M7.00947762,28 L16.9905224,28 C18.6633689,28 20,29.347389 20,31.0094776 L20,40.9905224 C20,42.6633689 18.652611,44 16.9905224,44 L7.00947762,44 C5.33663106,44 4,42.652611 4,40.9905224 L4,31.0094776 C4,29.3366311 5.34738902,28 7.00947762,28 Z M10.9206349,36.8417094 L11.1746032,34.7247863 L13.047619,34.7247863 L12.7936508,36.8417094 Z M10.9206349,36.8417094" id="DevDocs On" fill="#78B2F2"></path>
    </g>
</svg>