<?xml version="1.0" encoding="UTF-8" standalone="no"?>
<svg width="24px" height="48px" viewBox="0 0 24 48" version="1.1" xmlns="http://www.w3.org/2000/svg" xmlns:xlink="http://www.w3.org/1999/xlink" xmlns:sketch="http://www.bohemiancoding.com/sketch/ns">
    <title>DevDocs</title>
    <description>Created with Sketch (http://www.bohemiancoding.com/sketch)</description>
    <defs></defs>
    <g id="Page 1" stroke="none" stroke-width="1" fill="none" fill-rule="evenodd">
        <path d="M8,14.35 L9.375,14.35 L8.96428571,17.95 L10.2142857,17.95 L10.625,14.35 L12.7321429,14.35 L12.3035714,17.95 L13.5535714,17.95 L13.9821429,14.35 L15.6428571,14.35 L15.6428571,12.9469231 L14.1428571,12.9469231 L14.4285714,10.5653846 L16,10.5653846 L16,9.16230769 L14.5892857,9.16230769 L14.9642857,5.95 L13.7321429,5.95 L13.3392857,9.16230769 L11.2321429,9.16230769 L11.6071429,5.95 L10.3928571,5.95 L9.98214286,9.16230769 L8.35714286,9.16230769 L8.35714286,10.5653846 L9.82142857,10.5653846 L9.53571429,12.9469231 L8,12.9469231 Z M5.99253976,3 L18.0074602,3 C19.6470745,3 21,4.33980569 21,5.99253976 L21,18.0074602 C21,19.6470745 19.6601943,21 18.0074602,21 L5.99253976,21 C4.35292554,21 3,19.6601943 3,18.0074602 L3,5.99253976 C3,4.35292554 4.33980569,3 5.99253976,3 Z M10.7857143,12.9469231 L11.0714286,10.5653846 L13.1785714,10.5653846 L12.8928571,12.9469231 Z M10.7857143,12.9469231" id="DevDocs" fill="#BBBBBB"></path>
        <path d="M8,38.35 L9.375,38.35 L8.96428571,41.95 L10.2142857,41.95 L10.625,38.35 L12.7321429,38.35 L12.3035714,41.95 L13.5535714,41.95 L13.9821429,38.35 L15.6428571,38.35 L15.6428571,36.9469231 L14.1428571,36.9469231 L14.4285714,34.5653846 L16,34.5653846 L16,33.1623077 L14.5892857,33.1623077 L14.9642857,29.95 L13.7321429,29.95 L13.3392857,33.1623077 L11.2321429,33.1623077 L11.6071429,29.95 L10.3928571,29.95 L9.98214286,33.1623077 L8.35714286,33.1623077 L8.35714286,34.5653846 L9.82142857,34.5653846 L9.53571429,36.9469231 L8,36.9469231 Z M5.99253976,27 L18.0074602,27 C19.6470745,27 21,28.3398057 21,29.9925398 L21,42.0074602 C21,43.6470745 19.6601943,45 18.0074602,45 L5.99253976,45 C4.35292554,45 3,43.6601943 3,42.0074602 L3,29.9925398 C3,28.3529255 4.33980569,27 5.99253976,27 Z M10.7857143,36.9469231 L11.0714286,34.5653846 L13.1785714,34.5653846 L12.8928571,36.9469231 Z M10.7857143,36.9469231" id="DevDocs On" fill="#78B2F2"></path>
    </g>
</svg>