<?xml version="1.0" encoding="UTF-8" standalone="no"?>
<svg width="24px" height="48px" viewBox="0 0 24 48" version="1.1" xmlns="http://www.w3.org/2000/svg" xmlns:xlink="http://www.w3.org/1999/xlink" xmlns:sketch="http://www.bohemiancoding.com/sketch/ns">
    <title>DevDocs</title>
    <description>Created with Sketch (http://www.bohemiancoding.com/sketch)</description>
    <defs></defs>
    <g id="Page 1" stroke="none" stroke-width="1" fill="none" fill-rule="evenodd">
        <path d="M9.46296296,13.8115385 L9.01851852,16.95 L10.0185185,16.95 L10.462963,13.8115385 L12.9259259,13.8115385 L12.462963,16.95 L13.462963,16.95 L13.9074074,13.8115385 L15.6296296,13.8115385 L15.6296296,12.9346154 L14.037037,12.9346154 L14.3888889,10.6576923 L16,10.6576923 L16,9.76538462 L14.5,9.76538462 L14.9259259,6.95 L13.9444444,6.95 L13.5,9.76538462 L11.0555556,9.76538462 L11.4814815,6.95 L10.5,6.95 L10.0555556,9.76538462 L8.37037037,9.76538462 L8.37037037,10.6576923 L9.94444444,10.6576923 L9.59259259,12.9346154 L8,12.9346154 L8,13.8115385 Z M5.99406028,4 L18.0059397,4 C19.1054862,4 20,4.8927712 20,5.99406028 L20,18.0059397 C20,19.1054862 19.1072288,20 18.0059397,20 L5.99406028,20 C4.89451376,20 4,19.1072288 4,18.0059397 L4,5.99406028 C4,4.89451376 4.8927712,4 5.99406028,4 Z M10.5925926,12.9346154 L10.9259259,10.6576923 L13.3888889,10.6576923 L13.037037,12.9346154 Z M10.5925926,12.9346154" id="DevDocs" fill="#BBBBBB"></path>
        <path d="M9.46296296,37.8115385 L9.01851852,40.95 L10.0185185,40.95 L10.462963,37.8115385 L12.9259259,37.8115385 L12.462963,40.95 L13.462963,40.95 L13.9074074,37.8115385 L15.6296296,37.8115385 L15.6296296,36.9346154 L14.037037,36.9346154 L14.3888889,34.6576923 L16,34.6576923 L16,33.7653846 L14.5,33.7653846 L14.9259259,30.95 L13.9444444,30.95 L13.5,33.7653846 L11.0555556,33.7653846 L11.4814815,30.95 L10.5,30.95 L10.0555556,33.7653846 L8.37037037,33.7653846 L8.37037037,34.6576923 L9.94444444,34.6576923 L9.59259259,36.9346154 L8,36.9346154 L8,37.8115385 Z M5.99406028,28 L18.0059397,28 C19.1054862,28 20,28.8927712 20,29.9940603 L20,42.0059397 C20,43.1054862 19.1072288,44 18.0059397,44 L5.99406028,44 C4.89451376,44 4,43.1072288 4,42.0059397 L4,29.9940603 C4,28.8945138 4.8927712,28 5.99406028,28 Z M10.5925926,36.9346154 L10.9259259,34.6576923 L13.3888889,34.6576923 L13.037037,36.9346154 Z M10.5925926,36.9346154" id="DevDocs On" fill="#78B2F2"></path>
    </g>
</svg>