<?xml version="1.0" encoding="UTF-8" standalone="no"?>
<svg width="24px" height="48px" viewBox="0 0 24 48" version="1.1" xmlns="http://www.w3.org/2000/svg" xmlns:xlink="http://www.w3.org/1999/xlink" xmlns:sketch="http://www.bohemiancoding.com/sketch/ns">
    <title>DevDocs</title>
    <description>Created with Sketch (http://www.bohemiancoding.com/sketch)</description>
    <defs></defs>
    <g id="Page 1" stroke="none" stroke-width="1" fill="none" fill-rule="evenodd">
        <path d="M9.27586207,14.1230769 L8.89655172,17 L10.362069,17 L10.7586207,14.1230769 L12.5344828,14.1230769 L12.1551724,17 L13.6206897,17 L14.0172414,14.1230769 L15.6551724,14.1230769 L15.6551724,12.6769231 L14.2068966,12.6769231 L14.4310345,10.9846154 L16,10.9846154 L16,9.53846154 L14.637931,9.53846154 L14.9827586,7 L13.5344828,7 L13.1724138,9.53846154 L11.3793103,9.53846154 L11.7241379,7 L10.2758621,7 L9.9137931,9.53846154 L8.34482759,9.53846154 L8.34482759,10.9846154 L9.70689655,10.9846154 L9.46551724,12.6769231 L8,12.6769231 L8,14.1230769 Z M5.99406028,4 L18.0059397,4 C19.1054862,4 20,4.8927712 20,5.99406028 L20,18.0059397 C20,19.1054862 19.1072288,20 18.0059397,20 L5.99406028,20 C4.89451376,20 4,19.1072288 4,18.0059397 L4,5.99406028 C4,4.89451376 4.8927712,4 5.99406028,4 Z M10.9482759,12.6769231 L11.1724138,10.9846154 L12.9655172,10.9846154 L12.7241379,12.6769231 Z M10.9482759,12.6769231" id="DevDocs" fill="#BBBBBB"></path>
        <path d="M9.27586207,38.1230769 L8.89655172,41 L10.362069,41 L10.7586207,38.1230769 L12.5344828,38.1230769 L12.1551724,41 L13.6206897,41 L14.0172414,38.1230769 L15.6551724,38.1230769 L15.6551724,36.6769231 L14.2068966,36.6769231 L14.4310345,34.9846154 L16,34.9846154 L16,33.5384615 L14.637931,33.5384615 L14.9827586,31 L13.5344828,31 L13.1724138,33.5384615 L11.3793103,33.5384615 L11.7241379,31 L10.2758621,31 L9.9137931,33.5384615 L8.34482759,33.5384615 L8.34482759,34.9846154 L9.70689655,34.9846154 L9.46551724,36.6769231 L8,36.6769231 L8,38.1230769 Z M5.99406028,28 L18.0059397,28 C19.1054862,28 20,28.8927712 20,29.9940603 L20,42.0059397 C20,43.1054862 19.1072288,44 18.0059397,44 L5.99406028,44 C4.89451376,44 4,43.1072288 4,42.0059397 L4,29.9940603 C4,28.8945138 4.8927712,28 5.99406028,28 Z M10.9482759,36.6769231 L11.1724138,34.9846154 L12.9655172,34.9846154 L12.7241379,36.6769231 Z M10.9482759,36.6769231" id="DevDocs On" fill="#78B2F2"></path>
    </g>
</svg>